<svg width="81" height="50" viewBox="0 0 81 50" fill="none" xmlns="http://www.w3.org/2000/svg">
<g id="monday-1" clip-path="url(#clip0_415_24939)">
<path id="Vector" d="M40.4655 49.4054C36.9368 49.3191 34.0255 47.7619 32.1666 44.5115C30.2611 41.1514 30.3441 37.7117 32.3757 34.4347C37.2123 26.6356 42.112 18.8796 46.9817 11.1037C47.9776 9.51334 48.9502 7.89972 49.9926 6.33923C51.3763 4.20487 53.5384 2.6951 56.0185 2.13139C58.4986 1.56769 61.1007 1.99458 63.2708 3.32118C67.8551 6.14666 69.3887 12.0234 66.5339 16.6551C60.6981 26.1619 54.7794 35.6222 48.7776 45.0361C46.9286 47.9479 44.1236 49.3523 40.4655 49.4054Z" fill="#C8C8C8"/>
<path id="Vector_2" d="M10.1579 49.4054C6.59602 49.3191 3.70137 47.6922 1.87893 44.455C6.41942e-05 41.095 0.119568 37.6486 2.15778 34.3716C7.36063 26.0224 12.5867 17.6854 17.836 9.36057C18.5 8.28483 19.1639 7.18253 19.8742 6.13999C21.3148 4.05197 23.5112 2.60663 25.9985 2.11C28.4858 1.61336 31.0687 2.10441 33.2004 3.47919C35.332 4.85396 36.8451 7.00453 37.4192 9.47556C37.9933 11.9466 37.5833 14.5441 36.2762 16.7181C30.4603 26.1109 24.5648 35.4706 18.6659 44.8202C16.7505 47.8515 13.9322 49.3523 10.1579 49.4054Z" fill="#C8C8C8"/>
<path id="Vector_3" d="M70.9688 30.3674C76.3365 30.3939 80.6818 34.6604 80.6719 39.893C80.6719 45.2053 76.2104 49.4884 70.7929 49.422C65.3754 49.3556 61.1064 45.1356 61.113 39.8797C61.1197 34.5475 65.4816 30.3342 70.9688 30.3674Z" fill="#C8C8C8"/>
</g>
<defs>
<clipPath id="clip0_415_24939">
<rect width="80.6818" height="50" fill="white"/>
</clipPath>
</defs>
</svg>
