<svg width="192" height="25" viewBox="0 0 192 25" fill="none" xmlns="http://www.w3.org/2000/svg">
<g id="oracle-6" clip-path="url(#clip0_415_24948)">
<path id="Vector" d="M82.0206 16.2646H94.7279L88.0088 5.45448L75.6767 24.9996H70.0645L85.0641 1.52156C85.7161 0.573167 86.8031 0 88.0088 0C89.1747 0 90.2617 0.55326 90.8942 1.48212L105.953 24.9996H100.341L97.6929 20.6321H84.8275L82.021 16.2646H82.0206ZM140.32 20.6318V0.237004H135.558V22.6281C135.558 23.2407 135.795 23.8338 136.249 24.2882C136.704 24.7427 137.316 24.9996 137.988 24.9996H159.707L162.514 20.6321H140.32L140.32 20.6318ZM61.5267 16.9757C66.1514 16.9757 69.9063 13.2407 69.9063 8.61629C69.9063 3.99151 66.1514 0.236629 61.5267 0.236629H40.691V25H45.4521V4.60487H61.2108C63.4242 4.60487 65.2027 6.40362 65.2027 8.61704C65.2027 10.8301 63.4242 12.6285 61.2108 12.6285L47.7842 12.6089L62.0011 25H68.9181L59.3531 16.9764H61.5271L61.5267 16.9757ZM11.3836 24.9996C4.54763 25 -1 19.4663 -1 12.6285C-1 5.79027 4.54763 0.23738 11.3836 0.23738H25.7766C32.614 0.23738 38.1575 5.79027 38.1575 12.6285C38.1575 19.4663 32.614 24.9996 25.7762 24.9996H11.3836ZM25.4566 20.6321C29.8853 20.6321 33.4723 17.0549 33.4723 12.6281C33.4723 8.20162 29.8853 4.60487 25.4566 4.60487H11.7021C7.27487 4.60487 3.686 8.20162 3.686 12.6285C3.686 17.0549 7.27487 20.6321 11.7017 20.6321H25.4562H25.4566ZM115.894 24.9996C109.056 24.9996 103.503 19.4663 103.503 12.6285C103.503 5.79027 109.056 0.23738 115.894 0.23738H132.989L130.202 4.60487H116.21C111.783 4.60487 108.186 8.20162 108.186 12.6285C108.186 17.0549 111.783 20.6321 116.21 20.6321H133.384L130.577 24.9996H115.894ZM174.134 20.6321C170.478 20.6321 167.376 18.1817 166.427 14.8021H186.782L189.589 10.4346H166.427C167.376 7.07482 170.478 4.60487 174.134 4.60487H188.107L190.932 0.236629H173.818C166.98 0.236629 161.427 5.78989 161.427 12.6277C161.427 19.4659 166.98 24.9992 173.818 24.9992H188.502L191.308 20.6321H174.134H174.134Z" fill="#C8C8C8"/>
</g>
<defs>
<clipPath id="clip0_415_24948">
<rect width="191.131" height="25" fill="white"/>
</clipPath>
</defs>
</svg>
