<svg width="159" height="40" viewBox="0 0 159 40" fill="none" xmlns="http://www.w3.org/2000/svg">
<g id="slack-2" clip-path="url(#clip0_415_24926)">
<path id="Vector" fill-rule="evenodd" clip-rule="evenodd" d="M50.5723 31.4955L52.5451 26.9112C54.676 28.5046 57.515 29.333 60.3162 29.333C62.3838 29.333 63.6927 28.5362 63.6927 27.3285C63.6611 23.952 51.3057 26.595 51.2109 18.1284C51.1793 13.8287 54.9984 10.5154 60.411 10.5154C63.6295 10.5154 66.8416 11.3121 69.1369 13.1268L67.2906 17.8059C65.1913 16.4654 62.5799 15.5106 60.0949 15.5106C58.4066 15.5106 57.2937 16.3073 57.2937 17.3254C57.3253 20.6387 69.7756 18.8239 69.902 26.9112C69.902 31.3058 66.1777 34.3978 60.8284 34.3978C56.908 34.3914 53.3102 33.4683 50.5723 31.4955ZM126.329 25.2545C125.343 26.9744 123.497 28.1505 121.36 28.1505C118.204 28.1505 115.662 25.6023 115.662 22.4534C115.662 19.3045 118.211 16.7563 121.36 16.7563C123.49 16.7563 125.343 17.9324 126.329 19.6523L131.774 16.6298C129.738 13.0004 125.817 10.5154 121.36 10.5154C114.764 10.5154 109.415 15.8647 109.415 22.4597C109.415 29.0547 114.764 34.4041 121.36 34.4041C125.849 34.4041 129.738 31.9507 131.774 28.2896L126.329 25.2545ZM72.6399 0.607056H79.4562V33.9488H72.6399V0.607056ZM134.448 0.607056V33.9488H141.265V23.9457L149.352 33.9488H158.078L147.79 22.0677L157.313 10.9833H148.966L141.258 20.1834V0.607056H134.448Z" fill="#C8C8C8"/>
<path id="Vector_2" d="M99.7092 25.3178C98.7228 26.9428 96.6868 28.1505 94.3915 28.1505C91.2363 28.1505 88.6944 25.6023 88.6944 22.4534C88.6944 19.3045 91.2426 16.7563 94.3915 16.7563C96.6868 16.7563 98.7228 18.0272 99.7092 19.6839V25.3178ZM99.7092 10.9896V13.6959C98.5964 11.8179 95.8268 10.509 92.9245 10.509C86.9365 10.509 82.2258 15.7952 82.2258 22.4218C82.2258 29.0484 86.9365 34.3977 92.9245 34.3977C95.8205 34.3977 98.59 33.0952 99.7092 31.2109V33.9172H106.526V10.9896H99.7092Z" fill="#C8C8C8"/>
<g id="Group">
<path id="Vector_3" fill-rule="evenodd" clip-rule="evenodd" d="M8.44123 25.2862C8.44123 27.6131 6.56327 29.491 4.23636 29.491C1.90946 29.491 0.0314941 27.6067 0.0314941 25.2862C0.0314941 22.9656 1.90946 21.0813 4.23636 21.0813H8.44123V25.2862ZM10.5405 25.2862C10.5405 22.9593 12.4185 21.0813 14.7454 21.0813C17.0723 21.0813 18.9502 22.9593 18.9502 25.2862V35.7952C18.9502 38.1221 17.0723 40 14.7454 40C12.4185 40 10.5405 38.1221 10.5405 35.7952V25.2862Z" fill="#C8C8C8"/>
<path id="Vector_4" fill-rule="evenodd" clip-rule="evenodd" d="M14.7455 8.40974C12.4186 8.40974 10.5406 6.53177 10.5406 4.20487C10.5406 1.87796 12.4186 0 14.7455 0C17.0724 0 18.9504 1.87796 18.9504 4.20487V8.40974H14.7455ZM14.7455 10.5406C17.0724 10.5406 18.9504 12.4186 18.9504 14.7455C18.9504 17.0724 17.0724 18.9504 14.7455 18.9504H4.20487C1.87796 18.9504 0 17.0661 0 14.7455C0 12.4249 1.87796 10.5406 4.20487 10.5406H14.7455Z" fill="#C8C8C8"/>
<path id="Vector_5" fill-rule="evenodd" clip-rule="evenodd" d="M31.5903 14.7455C31.5903 12.4186 33.4683 10.5406 35.7952 10.5406C38.1221 10.5406 40 12.4186 40 14.7455C40 17.0724 38.1221 18.9504 35.7952 18.9504H31.5903V14.7455ZM29.491 14.7455C29.491 17.0724 27.6131 18.9504 25.2862 18.9504C22.9593 18.9504 21.0813 17.0724 21.0813 14.7455V4.20487C21.0813 1.87796 22.9593 0 25.2862 0C27.6131 0 29.491 1.87796 29.491 4.20487V14.7455Z" fill="#C8C8C8"/>
<path id="Vector_6" fill-rule="evenodd" clip-rule="evenodd" d="M25.2862 31.5903C27.6131 31.5903 29.491 33.4683 29.491 35.7952C29.491 38.1221 27.6131 40 25.2862 40C22.9593 40 21.0813 38.1221 21.0813 35.7952V31.5903H25.2862ZM25.2862 29.491C22.9593 29.491 21.0813 27.6131 21.0813 25.2862C21.0813 22.9593 22.9593 21.0813 25.2862 21.0813H35.8268C38.1537 21.0813 40.0317 22.9593 40.0317 25.2862C40.0317 27.6131 38.1537 29.491 35.8268 29.491H25.2862Z" fill="#C8C8C8"/>
</g>
</g>
<defs>
<clipPath id="clip0_415_24926">
<rect width="158.078" height="40" fill="white"/>
</clipPath>
</defs>
</svg>
