<svg width="158" height="30" viewBox="0 0 158 30" fill="none" xmlns="http://www.w3.org/2000/svg">
<g id="zendesk-2" clip-path="url(#clip0_415_24935)">
<path id="Vector" d="M104.168 25.9108C106.25 25.9609 108.256 25.1834 109.761 23.7286L112.52 26.7134C110.689 28.5946 108.156 29.9992 104.218 29.9992C97.4458 29.9992 93.0814 25.5095 93.0814 19.4395C93.0814 13.4197 97.6715 8.87972 103.591 8.87972C110.313 8.87972 114.101 13.9966 113.775 21.0698H97.9223C98.4742 24.0296 100.556 25.9108 104.168 25.9108ZM108.984 17.7088C108.557 14.9748 106.927 12.9431 103.641 12.9431C100.581 12.9431 98.4742 14.6738 97.9223 17.7088H108.984ZM0 25.685L12.2152 13.2692H0.275908V9.38137H17.8588V13.3695L5.66866 25.7603H18.0344V29.6481H0V25.685ZM31.7294 25.9108C33.8113 25.9609 35.8179 25.1834 37.3229 23.7286L40.0819 26.7134C38.2509 28.5946 35.7176 29.9992 31.7796 29.9992C25.0324 29.9992 20.643 25.5095 20.643 19.4395C20.643 13.4197 25.2331 8.87972 31.1525 8.87972C37.8747 8.87972 41.6621 13.9966 41.3361 21.0698H25.4839C26.0608 24.0296 28.1176 25.9108 31.7294 25.9108ZM36.5704 17.7088C36.144 14.9748 34.5136 12.9431 31.2278 12.9431C28.1677 12.9431 26.0608 14.6738 25.509 17.7088H36.5704ZM67.7229 19.4646C67.7229 12.9682 72.5639 8.92988 77.9065 8.92988C80.5903 8.92988 83.1487 10.1088 84.6537 11.9649V0.000488281H88.9679V29.5979H84.6537V26.7887C83.0985 28.7702 80.5401 29.9992 77.8563 29.9992C72.6893 29.9992 67.7229 25.9108 67.7229 19.4646ZM84.9045 19.4144C84.9045 15.8025 82.1705 12.8428 78.4834 12.8428C74.8715 12.8428 72.0622 15.7273 72.0622 19.4144C72.0622 23.1015 74.8715 26.0111 78.4834 26.0111C82.1705 26.0362 84.9045 23.0764 84.9045 19.4144ZM116.584 25.2837L120.497 23.252C121.55 25.1332 123.557 26.2619 125.714 26.2118C128.147 26.2118 129.426 24.9576 129.426 23.5279C129.426 21.8976 127.068 21.5464 124.51 21.0197C121.048 20.2923 117.462 19.1636 117.462 14.9748C117.462 11.7642 120.522 8.80447 125.313 8.85463C129.1 8.85463 131.909 10.3596 133.489 12.7926L129.852 14.7992C128.924 13.3695 127.319 12.4916 125.287 12.4916C122.955 12.4916 121.776 13.6203 121.776 14.9246C121.776 16.3794 123.657 16.7807 126.592 17.4329C129.928 18.1603 133.715 19.2639 133.715 23.4778C133.715 26.287 131.282 30.0494 125.488 29.9992C121.274 29.9992 118.289 28.2936 116.584 25.2837ZM145.429 20.5933L142.018 24.3306V29.5979H137.703V0.000488281H142.018V19.3642L151.173 9.3312H156.415L148.489 18.0098L156.641 29.5979H151.75L145.429 20.5933ZM54.68 8.9048C49.5381 8.9048 45.249 12.2408 45.249 17.7339V29.5979H49.6635V18.3108C49.6635 14.9748 51.5698 12.9933 54.8305 12.9933C58.0912 12.9933 59.7216 14.9748 59.7216 18.3108V29.5979H64.111V17.7589C64.111 12.2408 59.8219 8.9048 54.68 8.9048Z" fill="#C8C8C8"/>
<path id="Vector_2" d="M155.211 6.6977C155.813 6.09572 156.816 6.09572 157.418 6.6977C158.02 7.29968 158.02 8.30299 157.418 8.90497C156.816 9.50695 155.813 9.50695 155.211 8.90497C154.584 8.30299 154.584 7.32477 155.211 6.6977ZM157.142 8.65414C157.594 8.17757 157.569 7.4251 157.117 6.97361C156.641 6.52212 155.888 6.54721 155.437 6.99869C154.985 7.47526 154.985 8.20266 155.462 8.65414C155.938 9.13071 156.691 9.10563 157.142 8.65414ZM156.44 6.79803L156.917 7.2746C157.218 7.57559 157.218 7.92675 157.017 8.12741C156.866 8.30299 156.616 8.35315 156.415 8.25282L156.264 8.8548L155.938 8.52873L156.164 7.701L156.29 7.82642C156.365 7.92675 156.54 7.95183 156.641 7.87658L156.666 7.8515C156.766 7.75117 156.741 7.57559 156.641 7.50034L156.616 7.47526L156.44 7.29968L155.562 8.17757L155.286 7.90166L156.44 6.79803Z" fill="#C8C8C8"/>
</g>
<defs>
<clipPath id="clip0_415_24935">
<rect width="157.895" height="30" fill="white"/>
</clipPath>
</defs>
</svg>
