<svg width="166" height="57" viewBox="0 0 166 57" fill="none" xmlns="http://www.w3.org/2000/svg">
<g id="Group 52">
<g id="Group 51">
<path id="Vector" d="M23.6619 0L0 15.681V15.7106L18.297 27.8298L23.6619 24.2678V0Z" fill="#7152F3"/>
<path id="Vector_2" d="M0 39.9931L23.6619 55.6591V31.3914L18.297 27.8296L0 39.9487V39.9931Z" fill="#7152F3"/>
<path id="Vector_3" d="M49.6441 16.0658L25.9824 0.384766V24.6526L31.3621 28.2144L49.6441 16.0953V16.0658Z" fill="#7152F3"/>
<path id="Vector_4" d="M25.9824 56.0438L49.6441 40.3626V40.333L31.3621 28.2139L25.9824 31.7757V56.0438Z" fill="#7152F3"/>
<path id="Vector_5" d="M0 15.7104V39.9488L18.297 27.8296L0 15.7104Z" fill="#251164"/>
<path id="Vector_6" d="M49.6448 40.3335V16.0952L31.3623 28.2144L49.6448 40.3335Z" fill="#251164"/>
</g>
<g id="HRMS">
<path d="M77.8535 41.8463V15.6925H81.8887V41.8463H77.8535ZM60.7788 41.8463V15.6925H64.814V41.8463H60.7788ZM62.5349 30.7496V26.8639H79.647V30.7496H62.5349Z" fill="#07050F"/>
<path d="M89.2022 41.8463V15.6925H100.336C101.831 15.6925 103.201 16.0661 104.446 16.8134C105.716 17.5357 106.725 18.532 107.472 19.8024C108.22 21.0478 108.593 22.4551 108.593 24.0243C108.593 25.4441 108.22 26.7643 107.472 27.9848C106.725 29.2053 105.729 30.1892 104.483 30.9364C103.238 31.6588 101.856 32.02 100.336 32.02H93.2373V41.8463H89.2022ZM104.745 41.8463L98.0945 30.0397L102.242 29.1057L109.64 41.8837L104.745 41.8463ZM93.2373 28.1342H100.71C101.432 28.1342 102.08 27.9599 102.653 27.6112C103.226 27.2375 103.674 26.7394 103.998 26.1167C104.322 25.469 104.483 24.7591 104.483 23.987C104.483 23.1152 104.272 22.3555 103.848 21.7079C103.45 21.0353 102.877 20.5123 102.13 20.1386C101.407 19.765 100.585 19.5782 99.6637 19.5782H93.2373V28.1342Z" fill="#07050F"/>
<path d="M115.181 41.8463V15.6925H119.141L128.669 31.198L126.763 31.1606L136.403 15.6925H140.139V41.8463H136.104V31.1233C136.104 28.8815 136.154 26.8639 136.253 25.0705C136.378 23.2771 136.577 21.4961 136.851 19.7276L137.374 21.1101L128.818 34.3364H126.352L118.058 21.2595L118.469 19.7276C118.743 21.3965 118.93 23.1152 119.029 24.8837C119.154 26.6273 119.216 28.7071 119.216 31.1233V41.8463H115.181Z" fill="#07050F"/>
<path d="M155.542 42.22C154.122 42.22 152.802 42.0331 151.582 41.6595C150.386 41.2859 149.29 40.7255 148.294 39.9782C147.322 39.206 146.451 38.2595 145.678 37.1386L148.443 33.9628C149.664 35.7064 150.834 36.9145 151.955 37.587C153.076 38.2595 154.409 38.5958 155.953 38.5958C156.9 38.5958 157.759 38.4463 158.531 38.1474C159.303 37.8485 159.914 37.4375 160.362 36.9145C160.81 36.3914 161.035 35.7936 161.035 35.1211C161.035 34.6727 160.96 34.2493 160.81 33.8507C160.661 33.4522 160.424 33.091 160.1 32.7672C159.802 32.4434 159.403 32.1445 158.905 31.8705C158.432 31.5965 157.871 31.3599 157.224 31.1606C156.576 30.9364 155.829 30.7496 154.982 30.6002C153.637 30.3262 152.466 29.965 151.47 29.5167C150.473 29.0683 149.639 28.5079 148.966 27.8353C148.294 27.1628 147.796 26.4031 147.472 25.5562C147.148 24.6844 146.986 23.713 146.986 22.6419C146.986 21.5958 147.21 20.6243 147.659 19.7276C148.132 18.8309 148.767 18.0588 149.564 17.4112C150.386 16.7386 151.345 16.228 152.441 15.8793C153.537 15.5057 154.72 15.3188 155.991 15.3188C157.336 15.3188 158.569 15.4932 159.689 15.8419C160.81 16.1906 161.807 16.7137 162.678 17.4112C163.55 18.0837 164.273 18.9181 164.845 19.9145L162.006 22.7167C161.508 21.8947 160.947 21.2097 160.325 20.6617C159.702 20.0888 159.017 19.6654 158.27 19.3914C157.522 19.0925 156.725 18.943 155.878 18.943C154.907 18.943 154.06 19.0925 153.338 19.3914C152.615 19.6903 152.043 20.1137 151.619 20.6617C151.221 21.1848 151.021 21.8075 151.021 22.5298C151.021 23.0529 151.121 23.5386 151.32 23.987C151.519 24.4104 151.818 24.7965 152.217 25.1452C152.64 25.469 153.201 25.7679 153.898 26.0419C154.596 26.291 155.43 26.5152 156.402 26.7145C157.771 27.0134 158.992 27.3994 160.063 27.8727C161.134 28.3211 162.043 28.8566 162.791 29.4793C163.538 30.102 164.098 30.7994 164.472 31.5716C164.87 32.3438 165.07 33.1782 165.07 34.0749C165.07 35.7438 164.684 37.1885 163.911 38.409C163.139 39.6295 162.043 40.576 160.624 41.2485C159.204 41.8962 157.51 42.22 155.542 42.22Z" fill="#07050F"/>
</g>
</g>
</svg>
