<svg width="38" height="39" viewBox="0 0 38 39" fill="none" xmlns="http://www.w3.org/2000/svg">
<g id="Highlight_03">
<g id="Group">
<path id="Vector" fill-rule="evenodd" clip-rule="evenodd" d="M19.9398 35.2802C15.0488 34.0772 10.3387 34.156 5.37759 34.0119C4.40872 33.9838 3.60323 34.7449 3.57404 35.7109C3.54486 36.6774 4.30948 37.4841 5.27835 37.5127C9.98262 37.6492 14.4592 37.5389 19.1051 38.6805C20.0448 38.9117 20.9962 38.3368 21.2238 37.3982C21.4573 36.4603 20.8795 35.5107 19.9398 35.2802Z" fill="#7152F3"/>
<path id="Vector_2" fill-rule="evenodd" clip-rule="evenodd" d="M29.4186 25.0603C21.9595 16.8996 12.3642 9.2105 2.67551 3.83618C1.82921 3.36751 0.761072 3.67278 0.294146 4.51791C-0.172779 5.36305 0.130749 6.42996 0.977051 6.89864C10.3447 12.0955 19.6249 19.5319 26.8331 27.4229C27.4868 28.1361 28.5957 28.1858 29.3078 27.5338C30.0198 26.8819 30.0723 25.7735 29.4186 25.0603Z" fill="#7152F3"/>
<path id="Vector_3" fill-rule="evenodd" clip-rule="evenodd" d="M37.5664 22.993C38.7979 15.5292 36.6967 7.836 33.7259 1.04924C33.3349 0.163832 32.3018 -0.240071 31.4205 0.146894C30.5333 0.534442 30.1306 1.56811 30.5158 2.45352C33.224 8.63445 35.2318 15.6249 34.1111 22.4228C33.9536 23.3764 34.6014 24.2782 35.5528 24.4352C36.5041 24.5928 37.4088 23.9461 37.5664 22.993Z" fill="#7152F3"/>
</g>
</g>
</svg>
